HIERARCHY
ROOT hip
{
  OFFSET 0 0 0
  CHANNELS 6 Xposition Yposition Zposition Zrotation Yrotation Xrotation
  JOINT abdomen
  {
    OFFSET 0 20.6881 -0.73152
    CHANNELS 3 Zrotation Xrotation Yrotation
    JOINT chest
    {
      OFFSET 0 11.7043 -0.48768
      CHANNELS 3 Zrotation Xrotation Yrotation
      JOINT neck
      {
        OFFSET 0 22.1894 -2.19456
        CHANNELS 3 Zrotation Xrotation Yrotation
        JOINT head
        {
          OFFSET -0.24384 7.07133 1.2192
          CHANNELS 3 Zrotation Xrotation Yrotation
          JOINT leftEye
          {
            OFFSET 4.14528 8.04674 8.04672
            CHANNELS 3 Zrotation Xrotation Yrotation
            End Site
            {
              OFFSET 1 0 0
            }
          }
          JOINT rightEye
          {
            OFFSET -3.6576 8.04674 8.04672
            CHANNELS 3 Zrotation Xrotation Yrotation
            End Site
            {
              OFFSET 1 0 0
            }
          }
        }
      }
      JOINT rCollar
      {
        OFFSET -2.68224 19.2634 -4.8768
        CHANNELS 3 Zrotation Xrotation Yrotation
        JOINT rShldr
        {
          OFFSET -8.77824 -1.95073 1.46304
          CHANNELS 3 Zrotation Xrotation Yrotation
          JOINT rForeArm
          {
            OFFSET -28.1742 -1.7115 0.48768
            CHANNELS 3 Zrotation Xrotation Yrotation
            JOINT rHand
            {
              OFFSET -22.5879 0.773209 7.07136
              CHANNELS 3 Zrotation Xrotation Yrotation
              JOINT rThumb1
              {
                OFFSET -1.2192 -0.487915 3.41376
                CHANNELS 3 Zrotation Xrotation Yrotation
                JOINT rThumb2
                {
                  OFFSET -3.37035 -0.52449 3.41376
                  CHANNELS 3 Zrotation Xrotation Yrotation
                  End Site
                  {
                    OFFSET -1.78271 -1.18214 1.43049
                  }
                }
              }
              JOINT rIndex1
              {
                OFFSET -7.75947 0.938293 5.60832
                CHANNELS 3 Zrotation Xrotation Yrotation
                JOINT rIndex2
                {
                  OFFSET -2.54057 -0.884171 1.56538
                  CHANNELS 3 Zrotation Xrotation Yrotation
                  End Site
                  {
                    OFFSET -1.62519 -0.234802 1.16502
                  }
                }
              }
              JOINT rMid1
              {
                OFFSET -8.24714 1.18213 3.41376
                CHANNELS 3 Zrotation Xrotation Yrotation
                JOINT rMid2
                {
                  OFFSET -3.10165 -0.590103 1.0647
                  CHANNELS 3 Zrotation Xrotation Yrotation
                  End Site
                  {
                    OFFSET -2.48547 -0.328903 0.83742
                  }
                }
              }
              JOINT rRing1
              {
                OFFSET -8.82822 0.546677 1.51678
                CHANNELS 3 Zrotation Xrotation Yrotation
                JOINT rRing2
                {
                  OFFSET -2.60934 -0.819778 -0.0198488
                  CHANNELS 3 Zrotation Xrotation Yrotation
                  End Site
                  {
                    OFFSET -2.33842 -0.294052 0.168128
                  }
                }
              }
              JOINT rPinky1
              {
                OFFSET -8.27202 -0.0477905 -0.4584
                CHANNELS 3 Zrotation Xrotation Yrotation
                JOINT rPinky2
                {
                  OFFSET -1.82734 -0.647385 -0.700984
                  CHANNELS 3 Zrotation Xrotation Yrotation
                  End Site
                  {
                    OFFSET -1.69225 -0.51767 -0.607171
                  }
                }
              }
            }
          }
        }
      }
      JOINT lCollar
      {
        OFFSET 2.68224 19.2634 -4.8768
        CHANNELS 3 Zrotation Xrotation Yrotation
        JOINT lShldr
        {
          OFFSET 8.77824 -1.95073 1.46304
          CHANNELS 3 Zrotation Xrotation Yrotation
          JOINT lForeArm
          {
            OFFSET 28.1742 -1.7115 0.48768
            CHANNELS 3 Zrotation Xrotation Yrotation
            JOINT lHand
            {
              OFFSET 22.5879 0.773209 7.07136
              CHANNELS 3 Zrotation Xrotation Yrotation
              JOINT lThumb1
              {
                OFFSET 1.2192 -0.487915 3.41376
                CHANNELS 3 Zrotation Xrotation Yrotation
                JOINT lThumb2
                {
                  OFFSET 3.37035 -0.52449 3.41376
                  CHANNELS 3 Zrotation Xrotation Yrotation
                  End Site
                  {
                    OFFSET 1.78271 -1.18214 1.43049
                  }
                }
              }
              JOINT lIndex1
              {
                OFFSET 7.75947 0.938293 5.60832
                CHANNELS 3 Zrotation Xrotation Yrotation
                JOINT lIndex2
                {
                  OFFSET 2.54057 -0.884171 1.56538
                  CHANNELS 3 Zrotation Xrotation Yrotation
                  End Site
                  {
                    OFFSET 1.62519 -0.234802 1.16502
                  }
                }
              }
              JOINT lMid1
              {
                OFFSET 8.24714 1.18213 3.41376
                CHANNELS 3 Zrotation Xrotation Yrotation
                JOINT lMid2
                {
                  OFFSET 3.10165 -0.590103 1.0647
                  CHANNELS 3 Zrotation Xrotation Yrotation
                  End Site
                  {
                    OFFSET 2.48547 -0.328903 0.83742
                  }
                }
              }
              JOINT lRing1
              {
                OFFSET 8.82822 0.546677 1.51678
                CHANNELS 3 Zrotation Xrotation Yrotation
                JOINT lRing2
                {
                  OFFSET 2.60934 -0.819778 -0.0198488
                  CHANNELS 3 Zrotation Xrotation Yrotation
                  End Site
                  {
                    OFFSET 2.33842 -0.294052 0.168128
                  }
                }
              }
              JOINT lPinky1
              {
                OFFSET 8.27202 -0.0477905 -0.4584
                CHANNELS 3 Zrotation Xrotation Yrotation
                JOINT lPinky2
                {
                  OFFSET 1.82734 -0.647385 -0.700984
                  CHANNELS 3 Zrotation Xrotation Yrotation
                  End Site
                  {
                    OFFSET 1.69225 -0.51767 -0.607171
                  }
                }
              }
            }
          }
        }
      }
    }
  }
  JOINT rButtock
  {
    OFFSET -8.77824 4.35084 1.2192
    CHANNELS 3 Zrotation Xrotation Yrotation
    JOINT rThigh
    {
      OFFSET 0 -1.70687 -2.19456
      CHANNELS 3 Zrotation Xrotation Yrotation
      JOINT rShin
      {
        OFFSET 0 -36.8199 0.73152
        CHANNELS 3 Zrotation Xrotation Yrotation
        JOINT rFoot
        {
          OFFSET 0.73152 -45.1104 -5.12064
          CHANNELS 3 Zrotation Xrotation Yrotation
          End Site
          {
            OFFSET -1.1221 -3.69964 12.103
          }
        }
      }
    }
  }
  JOINT lButtock
  {
    OFFSET 8.77824 4.35084 1.2192
    CHANNELS 3 Zrotation Xrotation Yrotation
    JOINT lThigh
    {
      OFFSET 0 -1.70687 -2.19456
      CHANNELS 3 Zrotation Xrotation Yrotation
      JOINT lShin
      {
        OFFSET 0 -36.8199 0.73152
        CHANNELS 3 Zrotation Xrotation Yrotation
        JOINT lFoot
        {
          OFFSET -0.73152 -45.1104 -5.12064
          CHANNELS 3 Zrotation Xrotation Yrotation
          End Site
          {
            OFFSET 1.1221 -3.69964 12.103
          }
        }
      }
    }
  }
}
MOTION
Frames:	4
Frame Time:	0.03333
0.0 0.0 0.0 0.0 0.0 0.0 0.0 0.0 0.0 0.0 0.0 0.0 0.0 0.0 0.0 0.0 0.0 0.0 0.0 0.0 0.0 0.0 0.0 0.0 0.0 0.0 0.0 0.0 0.0 0.0 0.0 0.0 0.0 0.0 0.0 0.0 0.0 0.0 0.0 0.0 0.0 0.0 0.0 0.0 0.0 0.0 0.0 0.0 0.0 0.0 0.0 0.0 0.0 0.0 0.0 0.0 0.0 0.0 0.0 0.0 0.0 0.0 0.0 0.0 0.0 0.0 0.0 0.0 0.0 0.0 0.0 0.0 0.0 0.0 0.0 0.0 0.0 0.0 0.0 0.0 0.0 0.0 0.0 0.0 0.0 0.0 0.0 0.0 0.0 0.0 0.0 0.0 0.0 0.0 0.0 0.0 0.0 0.0 0.0 0.0 0.0 0.0 0.0 0.0 0.0 0.0 0.0 0.0 0.0 0.0 0.0 0.0 0.0 0.0 0.0 0.0 0.0 0.0 0.0 0.0 0.0 0.0 0.0 0.0 0.0 0.0 0.0 0.0 0.0 0.0 0.0 0.0
0.0844 64.3086 0.0026999999999999997 -179.327585 -34.946373 178.956629 3.416428 2.300025 -60.859666 -10.65137 -2.589536 82.363789 11.635529 -10.685175 108.930291 22.67295 -29.947396 23.680037 -139.655138 -10.567886 -28.260001 -37.439153 1.577831 -4.653996 -81.67272 -30.895424 166.994816 13.42095 -32.702488 6.560744 71.184984 -15.084099 -171.468918 -131.781958 -45.15715 59.65648 17.925171 24.683415 45.984228 -98.744168 57.299316 -76.950535 129.226002 -19.748721 113.64825 -2.146874 25.578351 -168.587899 153.692158 41.85258 -147.044025 31.136005 -36.526458 80.073709 61.661274 30.689825 -40.391528 -66.315138 -29.824222 -95.394366 -168.47022 44.7405 -42.396213 110.988957 36.394338 -25.247522 108.077698 -55.864656 -146.580287 -43.905292 -76.723923 -45.86421 158.441909 -9.470261 7.189045 25.86934 80.43707 77.321558 19.751814 -15.589616 -22.284698 -50.962315 72.30047 -110.391844 -156.196573 -52.046691 107.772949 -113.560581 48.991935 -16.029358 31.605978 -4.285531 107.5861 -124.620363 66.338158 82.535981 -84.9219 6.549323 85.27997 149.194494 25.77016 -122.257599 -70.777939 16.254093 52.170634 164.607045 63.538352 141.955059 49.296476 33.969414 110.665987 -8.373046 58.750087 16.342262 -6.819578 -1.185951 -89.678514 80.053852 9.242661 -92.537976 33.828698 -2.198384 90.428218 4.044059 32.841571 -2.096295 -6.732569 -0.705285 -88.681881 -72.560092 16.456221 82.115646
-3.0073 61.7218 -1.1257 -13.923594 -5.387531 2.198232 13.452499 18.03106 97.02992 -10.563982 4.973223 -101.010965 0.715251 29.097834 91.022171 -38.138108 -4.105573 -59.23285 48.61885 5.926835 13.075398 15.764331 1.876507 13.492754 -149.02918 2.850521 145.782432 55.352066 -47.745649 97.885627 117.394108 64.508763 99.546775 -124.240839 34.900079 97.901871 -174.346059 -39.744501 87.828154 -33.869539 -3.524988 -11.111594 16.224493 16.60909 15.683866 36.334239 -79.998187 -6.593409 -170.053747 -47.030189 131.096257 -136.067008 20.838012 104.894056 -135.115925 -25.285836 158.94145 -114.240043 27.15816 131.267476 103.853451 35.553171 -138.272563 151.251179 34.281859 143.43871 166.157301 14.349272 177.795236 15.505057 16.142462 32.6117 -17.949451 -40.105713 77.951602 -169.826055 -9.390325 -142.302424 174.514901 -26.14337 -77.742389 23.631734 -65.101353 17.556685 60.235007 27.238236 -53.989299 -27.920856 18.655993 17.588575 112.124187 29.749685 -109.392884 -110.605919 -69.596524 -32.868814 48.469669 11.381513 -10.8385 115.603152 -36.634825 -146.159526 12.349223 8.022371 -1.42461 143.53785 -16.646083 109.779398 -177.787233 66.247928 -3.298911 147.489863 50.043533 -2.780385 -38.233828 55.353615 -54.97483 27.675118 -23.50622 93.425018 45.511339 31.876748 36.948123 -77.065781 -72.753432 -172.964588 -83.697703 -36.228804 179.582666 -150.132545 27.856551 69.757391
-3.4467999999999996 54.466499999999996 -1.3254 -14.862352 -7.77216 2.132147 2.590885 20.277541 159.352556 -16.682062 10.349381 -147.077092 -11.088894 23.351084 -78.570999 28.803037 12.97347 106.088779 -33.428755 2.093179 -6.962768 -21.997289 1.998376 -10.255624 -34.797418 52.782002 31.990052 -16.066088 64.778229 99.745064 40.332828 84.608907 -175.825395 -146.448958 25.760621 119.978042 -7.338646 23.121572 35.441704 -3.090344 55.435731 0.884627 -144.767839 13.946562 102.620657 -6.140625 14.188235 34.339676 -167.690519 65.799557 154.324841 -33.464996 -8.767728 -12.321227 -76.854451 -6.223156 134.691665 77.746129 27.070185 -0.251176 8.621118 47.849198 -2.59429 -119.774104 83.048144 100.492204 156.376421 -50.293308 174.493819 -85.298136 42.014128 52.962028 -172.65041 0.775728 -105.709671 -144.968166 -23.877212 -138.24653 112.898612 40.094301 -87.396406 -64.076538 -60.641325 -47.532177 151.239939 -64.302661 -116.738744 49.688886 1.890431 -65.040417 -162.37639 -69.637445 -124.545419 167.981064 -35.7225 -119.777981 122.360275 -46.813847 145.787632 -46.588067 -30.575499 -37.225484 122.26462 37.820048 -172.971092 127.068851 58.785959 148.491578 116.287134 71.250407 53.914228 147.92938 70.409775 -13.811264 -47.698902 38.753731 163.996382 -80.921113 -42.192133 -143.590618 2.934493 20.793308 9.224757 115.234077 -60.470578 -156.369878 87.84393 -1.766697 115.722284 109.753037 4.498283 -173.623813
